<svg width="65" height="65" viewBox="0 0 65 65" fill="none" xmlns="http://www.w3.org/2000/svg">
<path d="M22.6697 53.6153C22.483 53.4289 22.335 53.2075 22.2339 52.9637C22.1329 52.72 22.0809 52.4588 22.0809 52.195C22.0809 51.9312 22.1329 51.6699 22.2339 51.4262C22.335 51.1825 22.483 50.9611 22.6697 50.7747L41.3269 32.12L22.6697 13.4653C22.293 13.0886 22.0814 12.5777 22.0814 12.045C22.0814 11.5123 22.293 11.0014 22.6697 10.6247C23.0464 10.248 23.5573 10.0364 24.09 10.0364C24.6227 10.0364 25.1336 10.248 25.5103 10.6247L45.5853 30.6997C45.772 30.8861 45.92 31.1075 46.0211 31.3512C46.1221 31.5949 46.1741 31.8562 46.1741 32.12C46.1741 32.3838 46.1221 32.645 46.0211 32.8887C45.92 33.1325 45.772 33.3539 45.5853 33.5403L25.5103 53.6153C25.3239 53.802 25.1025 53.95 24.8588 54.0511C24.615 54.1521 24.3538 54.2041 24.09 54.2041C23.8262 54.2041 23.565 54.1521 23.3213 54.0511C23.0775 53.95 22.8561 53.802 22.6697 53.6153Z" fill="#F8F8FF"/>
</svg>
