<svg width="185" height="185" viewBox="0 0 185 185" fill="none" xmlns="http://www.w3.org/2000/svg">
<path d="M132.969 52.0312H28.9062C25.8397 52.0312 22.8987 53.2494 20.7303 55.4178C18.5619 57.5862 17.3438 60.5272 17.3438 63.5938V144.531C17.3438 147.598 18.5619 150.539 20.7303 152.707C22.8987 154.876 25.8397 156.094 28.9062 156.094H132.969C136.035 156.094 138.976 154.876 141.145 152.707C143.313 150.539 144.531 147.598 144.531 144.531V63.5938C144.531 60.5272 143.313 57.5862 141.145 55.4178C138.976 53.2494 136.035 52.0312 132.969 52.0312ZM132.969 144.531H28.9062V63.5938H132.969V144.531ZM167.656 40.4688V127.188C167.656 128.721 167.047 130.191 165.963 131.275C164.879 132.36 163.408 132.969 161.875 132.969C160.342 132.969 158.871 132.36 157.787 131.275C156.703 130.191 156.094 128.721 156.094 127.188V40.4688H46.25C44.7167 40.4688 43.2462 39.8597 42.162 38.7755C41.0778 37.6913 40.4688 36.2208 40.4688 34.6875C40.4688 33.1542 41.0778 31.6837 42.162 30.5995C43.2462 29.5153 44.7167 28.9062 46.25 28.9063H156.094C159.16 28.9063 162.101 30.1244 164.27 32.2928C166.438 34.4612 167.656 37.4022 167.656 40.4688Z" fill="black" fill-opacity="0.07"/>
</svg>
