<svg width="185" height="185" viewBox="0 0 185 185" fill="none" xmlns="http://www.w3.org/2000/svg">
<path d="M156.094 52.0312C156.094 53.5645 155.485 55.035 154.4 56.1192C153.316 57.2034 151.846 57.8125 150.312 57.8125H127.188C125.654 57.8125 124.184 57.2034 123.1 56.1192C122.015 55.035 121.406 53.5645 121.406 52.0312C121.406 50.498 122.015 49.0275 123.1 47.9433C124.184 46.8591 125.654 46.25 127.188 46.25H150.312C151.846 46.25 153.316 46.8591 154.4 47.9433C155.485 49.0275 156.094 50.498 156.094 52.0312ZM150.312 69.375H127.188C125.654 69.375 124.184 69.9841 123.1 71.0683C122.015 72.1525 121.406 73.623 121.406 75.1562C121.406 76.6895 122.015 78.16 123.1 79.2442C124.184 80.3284 125.654 80.9375 127.188 80.9375H150.312C151.846 80.9375 153.316 80.3284 154.4 79.2442C155.485 78.16 156.094 76.6895 156.094 75.1562C156.094 73.623 155.485 72.1525 154.4 71.0683C153.316 69.9841 151.846 69.375 150.312 69.375ZM179.219 34.6875V150.312C179.219 153.379 178.001 156.32 175.832 158.488C173.664 160.657 170.723 161.875 167.656 161.875H109.844C106.777 161.875 103.836 160.657 101.668 158.488C99.4994 156.32 98.2812 153.379 98.2812 150.312V138.75H69.375V150.312H80.9375C82.4708 150.312 83.9413 150.922 85.0255 152.006C86.1097 153.09 86.7188 154.56 86.7188 156.094C86.7188 157.627 86.1097 159.098 85.0255 160.182C83.9413 161.266 82.4708 161.875 80.9375 161.875H46.25C44.7167 161.875 43.2462 161.266 42.162 160.182C41.0778 159.098 40.4688 157.627 40.4688 156.094C40.4688 154.56 41.0778 153.09 42.162 152.006C43.2462 150.922 44.7167 150.312 46.25 150.312H57.8125V138.75H23.125C18.5252 138.75 14.1137 136.923 10.8611 133.67C7.60853 130.418 5.78125 126.006 5.78125 121.406V69.375C5.78125 64.7752 7.60853 60.3637 10.8611 57.1111C14.1137 53.8585 18.5252 52.0312 23.125 52.0312H98.2812V34.6875C98.2812 31.6209 99.4994 28.68 101.668 26.5116C103.836 24.3432 106.777 23.125 109.844 23.125H167.656C170.723 23.125 173.664 24.3432 175.832 26.5116C178.001 28.68 179.219 31.6209 179.219 34.6875ZM98.2812 127.188V63.5938H23.125C21.5917 63.5938 20.1212 64.2028 19.037 65.287C17.9528 66.3712 17.3438 67.8417 17.3438 69.375V121.406C17.3438 122.94 17.9528 124.41 19.037 125.494C20.1212 126.578 21.5917 127.188 23.125 127.188H98.2812ZM167.656 150.312V34.6875H109.844V150.312H167.656ZM138.75 121.406C137.035 121.406 135.358 121.915 133.932 122.868C132.506 123.821 131.395 125.175 130.738 126.76C130.082 128.344 129.91 130.088 130.245 131.77C130.579 133.452 131.405 134.997 132.618 136.21C133.831 137.423 135.376 138.249 137.058 138.583C138.74 138.918 140.484 138.746 142.069 138.09C143.653 137.434 145.008 136.322 145.96 134.896C146.913 133.47 147.422 131.793 147.422 130.078C147.422 127.778 146.508 125.572 144.882 123.946C143.256 122.32 141.05 121.406 138.75 121.406Z" fill="black" fill-opacity="0.07"/>
</svg>
