<svg width="29" height="29" viewBox="0 0 29 29" fill="none" xmlns="http://www.w3.org/2000/svg">
<path d="M25.3581 5.33787C25.3313 4.89599 25.1436 4.47922 24.8306 4.16618C24.5176 3.85315 24.1008 3.6655 23.6589 3.63865C22.2338 3.55369 18.5918 3.68396 15.5695 6.70517L15.0314 7.25006H8.4237C8.18476 7.24871 7.94795 7.29489 7.72702 7.3859C7.5061 7.47692 7.30547 7.61095 7.13682 7.78021L3.25128 11.668C3.01299 11.9062 2.84578 12.206 2.76841 12.5339C2.69105 12.8617 2.70659 13.2047 2.8133 13.5242C2.92001 13.8437 3.11365 14.1272 3.37251 14.3428C3.63136 14.5584 3.94518 14.6976 4.27874 14.7447L8.63667 15.3531L13.6448 20.3612L14.2532 24.7214C14.2999 25.055 14.4391 25.3688 14.6549 25.6275C14.8707 25.8861 15.1545 26.0792 15.4743 26.185C15.6606 26.2472 15.8557 26.279 16.0521 26.279C16.2899 26.2795 16.5254 26.2329 16.7451 26.1419C16.9648 26.0509 17.1643 25.9173 17.3321 25.7489L21.22 21.8633C21.3892 21.6947 21.5232 21.4941 21.6143 21.2731C21.7053 21.0522 21.7515 20.8154 21.7501 20.5765V13.9688L22.2905 13.4284C25.3128 10.4061 25.4431 6.76408 25.3581 5.33787ZM8.4237 9.06256H13.2189L8.74089 13.5394L4.53135 12.9526L8.4237 9.06256ZM16.853 7.99205C17.7238 7.11586 18.7715 6.43557 19.9263 5.99662C21.081 5.55767 22.3161 5.37016 23.549 5.44662C23.6284 6.68023 23.4429 7.91655 23.0048 9.07249C22.5667 10.2284 21.8863 11.2772 21.0092 12.1483L14.5001 18.6552L10.3449 14.5001L16.853 7.99205ZM19.9376 20.5765L16.0487 24.4688L15.4607 20.2581L19.9376 15.7813V20.5765ZM11.5367 21.6526C11.0269 22.7696 9.32202 25.3751 4.53135 25.3751C4.291 25.3751 4.06049 25.2796 3.89054 25.1096C3.72058 24.9397 3.6251 24.7092 3.6251 24.4688C3.6251 19.6781 6.23057 17.9733 7.34753 17.4624C7.45583 17.413 7.57279 17.3854 7.69175 17.3812C7.81071 17.377 7.92932 17.3963 8.04082 17.438C8.15233 17.4796 8.25453 17.5428 8.34161 17.624C8.42868 17.7051 8.49892 17.8027 8.54831 17.911C8.5977 18.0193 8.62527 18.1362 8.62946 18.2552C8.63364 18.3741 8.61436 18.4928 8.5727 18.6043C8.53105 18.7158 8.46784 18.818 8.38668 18.905C8.30553 18.9921 8.20801 19.0623 8.09971 19.1117C7.37132 19.4437 5.76385 20.5119 5.48065 23.5195C8.48827 23.2363 9.55878 21.6288 9.88843 20.9004C9.93782 20.7921 10.0081 20.6946 10.0951 20.6135C10.1822 20.5323 10.2844 20.4691 10.3959 20.4275C10.5074 20.3858 10.626 20.3665 10.745 20.3707C10.8639 20.3749 10.9809 20.4025 11.0892 20.4519C11.1975 20.5012 11.295 20.5715 11.3762 20.6586C11.4573 20.7456 11.5205 20.8478 11.5622 20.9593C11.6038 21.0708 11.6231 21.1895 11.619 21.3084C11.6148 21.4274 11.5872 21.5443 11.5378 21.6526H11.5367Z" fill="#8A2EFF"/>
</svg>
