<svg width="60" height="60" viewBox="0 0 60 60" fill="none" xmlns="http://www.w3.org/2000/svg">
<rect width="60" height="60" rx="30" fill="#D4A6FF"/>
<g filter="url(#filter0_d_39_243)">
<path d="M39 40.125V37.875C39 36.6815 38.5259 35.5369 37.682 34.693C36.8381 33.8491 35.6935 33.375 34.5 33.375H25.5C24.3065 33.375 23.1619 33.8491 22.318 34.693C21.4741 35.5369 21 36.6815 21 37.875V40.125" stroke="#8A2EFF" stroke-width="2" stroke-linecap="round" stroke-linejoin="round"/>
<path d="M30 28.875C32.4853 28.875 34.5 26.8603 34.5 24.375C34.5 21.8897 32.4853 19.875 30 19.875C27.5147 19.875 25.5 21.8897 25.5 24.375C25.5 26.8603 27.5147 28.875 30 28.875Z" stroke="#8A2EFF" stroke-width="2" stroke-linecap="round" stroke-linejoin="round"/>
</g>
<defs>
<filter id="filter0_d_39_243" x="12.5" y="16.5" width="35" height="35" filterUnits="userSpaceOnUse" color-interpolation-filters="sRGB">
<feFlood flood-opacity="0" result="BackgroundImageFix"/>
<feColorMatrix in="SourceAlpha" type="matrix" values="0 0 0 0 0 0 0 0 0 0 0 0 0 0 0 0 0 0 127 0" result="hardAlpha"/>
<feOffset dy="4"/>
<feGaussianBlur stdDeviation="2"/>
<feComposite in2="hardAlpha" operator="out"/>
<feColorMatrix type="matrix" values="0 0 0 0 0 0 0 0 0 0 0 0 0 0 0 0 0 0 0 0"/>
<feBlend mode="normal" in2="BackgroundImageFix"/>
<feBlend mode="normal" in="SourceGraphic" result="shape"/>
</filter>
</defs>
</svg>
