<svg width="180" height="180" viewBox="0 0 180 180" fill="none" xmlns="http://www.w3.org/2000/svg">
<path d="M123.75 11.25H56.25C51.7745 11.25 47.4823 13.0279 44.3176 16.1926C41.1529 19.3573 39.375 23.6495 39.375 28.125V151.875C39.375 156.351 41.1529 160.643 44.3176 163.807C47.4823 166.972 51.7745 168.75 56.25 168.75H123.75C128.226 168.75 132.518 166.972 135.682 163.807C138.847 160.643 140.625 156.351 140.625 151.875V28.125C140.625 23.6495 138.847 19.3573 135.682 16.1926C132.518 13.0279 128.226 11.25 123.75 11.25ZM50.625 45H129.375V135H50.625V45ZM56.25 22.5H123.75C125.242 22.5 126.673 23.0926 127.727 24.1475C128.782 25.2024 129.375 26.6332 129.375 28.125V33.75H50.625V28.125C50.625 26.6332 51.2176 25.2024 52.2725 24.1475C53.3274 23.0926 54.7582 22.5 56.25 22.5ZM123.75 157.5H56.25C54.7582 157.5 53.3274 156.907 52.2725 155.852C51.2176 154.798 50.625 153.367 50.625 151.875V146.25H129.375V151.875C129.375 153.367 128.782 154.798 127.727 155.852C126.673 156.907 125.242 157.5 123.75 157.5Z" fill="black" fill-opacity="0.07"/>
</svg>
