<svg width="60" height="60" viewBox="0 0 60 60" fill="none" xmlns="http://www.w3.org/2000/svg">
<rect width="60" height="60" rx="30" fill="#EDD7FF"/>
<path d="M42.0894 19.9255H17.9108C17.6436 19.9255 17.3873 20.0317 17.1984 20.2206C17.0095 20.4095 16.9033 20.6658 16.9033 20.933V38.0595C16.9033 38.5939 17.1156 39.1064 17.4935 39.4843C17.8713 39.8621 18.3838 40.0744 18.9182 40.0744H41.082C41.6164 40.0744 42.1289 39.8621 42.5067 39.4843C42.8846 39.1064 43.0969 38.5939 43.0969 38.0595V20.933C43.0969 20.6658 42.9907 20.4095 42.8018 20.2206C42.6129 20.0317 42.3566 19.9255 42.0894 19.9255ZM39.499 21.9404L30.0001 30.6485L20.5012 21.9404H39.499ZM41.082 38.0595H18.9182V23.2237L29.3188 32.7579C29.5047 32.9285 29.7478 33.0231 30.0001 33.0231C30.2524 33.0231 30.4955 32.9285 30.6814 32.7579L41.082 23.2237V38.0595Z" fill="#8A2EFF"/>
</svg>
