<svg width="24" height="24" viewBox="0 0 24 24" fill="none" xmlns="http://www.w3.org/2000/svg">
<path d="M9.37492 19.7917C4.16659 21.3542 4.16659 17.1875 2.08325 16.6667M16.6666 22.9167V18.8855C16.7057 18.3887 16.6386 17.8894 16.4697 17.4207C16.3009 16.9519 16.0342 16.5244 15.6874 16.1667C18.9583 15.8021 22.3958 14.5625 22.3958 8.87504C22.3955 7.42069 21.8361 6.02212 20.8333 4.96879C21.3081 3.6964 21.2745 2.28998 20.7395 1.0417C20.7395 1.0417 19.5103 0.67712 16.6666 2.58337C14.2791 1.93631 11.7624 1.93631 9.37492 2.58337C6.53117 0.67712 5.302 1.0417 5.302 1.0417C4.76698 2.28998 4.7334 3.6964 5.20825 4.96879C4.19797 6.02993 3.63796 7.44114 3.64575 8.90629C3.64575 14.5521 7.08325 15.7917 10.3541 16.198C10.0114 16.5521 9.74707 16.9744 9.57836 17.4375C9.40966 17.9005 9.34034 18.3939 9.37492 18.8855V22.9167" stroke="#666669" stroke-width="2" stroke-linecap="round" stroke-linejoin="round"/>
</svg>
