<svg width="26" height="26" viewBox="0 0 26 26" fill="none" xmlns="http://www.w3.org/2000/svg">
<path d="M24.5 10.125C24.5 10.3792 24.399 10.6229 24.2193 10.8026C24.0396 10.9824 23.7958 11.0833 23.5417 11.0833C23.2875 11.0833 23.0437 10.9824 22.864 10.8026C22.6843 10.6229 22.5833 10.3792 22.5833 10.125V4.77271L14.6376 12.7197C14.4577 12.8995 14.2138 13.0005 13.9595 13.0005C13.7052 13.0005 13.4613 12.8995 13.2815 12.7197C13.1017 12.5399 13.0007 12.296 13.0007 12.0417C13.0007 11.7874 13.1017 11.5435 13.2815 11.3636L21.2273 3.41667H15.875C15.6208 3.41667 15.3771 3.3157 15.1974 3.13598C15.0176 2.95625 14.9167 2.7125 14.9167 2.45833C14.9167 2.20417 15.0176 1.96041 15.1974 1.78069C15.3771 1.60097 15.6208 1.5 15.875 1.5H23.5417C23.7958 1.5 24.0396 1.60097 24.2193 1.78069C24.399 1.96041 24.5 2.20417 24.5 2.45833V10.125ZM19.7083 13C19.4542 13 19.2104 13.101 19.0307 13.2807C18.851 13.4604 18.75 13.7042 18.75 13.9583V22.5833H3.41667V7.25H12.0417C12.2958 7.25 12.5396 7.14903 12.7193 6.96931C12.899 6.78959 13 6.54583 13 6.29167C13 6.0375 12.899 5.79375 12.7193 5.61402C12.5396 5.4343 12.2958 5.33333 12.0417 5.33333H3.41667C2.90833 5.33333 2.42082 5.53527 2.06138 5.89471C1.70193 6.25416 1.5 6.74167 1.5 7.25V22.5833C1.5 23.0917 1.70193 23.5792 2.06138 23.9386C2.42082 24.2981 2.90833 24.5 3.41667 24.5H18.75C19.2583 24.5 19.7458 24.2981 20.1053 23.9386C20.4647 23.5792 20.6667 23.0917 20.6667 22.5833V13.9583C20.6667 13.7042 20.5657 13.4604 20.386 13.2807C20.2063 13.101 19.9625 13 19.7083 13Z" fill="#666669"/>
</svg>
