<svg width="60" height="60" viewBox="0 0 60 60" fill="none" xmlns="http://www.w3.org/2000/svg">
<rect width="60" height="60" rx="30" fill="#EDD7FF"/>
<path d="M41.7963 33.8075L35.9075 31.1687L35.8913 31.1612C35.5856 31.0305 35.2521 30.978 34.921 31.0086C34.5899 31.0391 34.2716 31.1517 33.995 31.3362C33.9624 31.3578 33.9311 31.3811 33.9013 31.4062L30.8588 34C28.9313 33.0637 26.9413 31.0887 26.005 29.1862L28.6025 26.0975C28.6275 26.0662 28.6513 26.035 28.6738 26.0012C28.8543 25.7254 28.9638 25.4091 28.9926 25.0807C29.0214 24.7523 28.9686 24.4218 28.8388 24.1187V24.1037L26.1925 18.205C26.0209 17.8091 25.7259 17.4793 25.3515 17.2648C24.9771 17.0503 24.5433 16.9627 24.115 17.015C22.4212 17.2379 20.8665 18.0697 19.7412 19.3551C18.6159 20.6405 17.9969 22.2916 18 24C18 33.925 26.075 42 36 42C37.7084 42.0031 39.3595 41.3841 40.6449 40.2588C41.9303 39.1335 42.7621 37.5788 42.985 35.885C43.0374 35.4568 42.95 35.0232 42.7357 34.6488C42.5215 34.2744 42.1919 33.9793 41.7963 33.8075ZM36 40C31.758 39.9954 27.691 38.3082 24.6914 35.3086C21.6918 32.309 20.0046 28.242 20 24C19.9953 22.7794 20.4351 21.5987 21.2372 20.6786C22.0393 19.7585 23.1489 19.1618 24.3588 19C24.3583 19.005 24.3583 19.01 24.3588 19.015L26.9838 24.89L24.4 27.9825C24.3738 28.0127 24.35 28.0448 24.3288 28.0787C24.1407 28.3674 24.0303 28.6997 24.0084 29.0436C23.9865 29.3874 24.0538 29.7311 24.2038 30.0412C25.3363 32.3575 27.67 34.6737 30.0113 35.805C30.3237 35.9536 30.6694 36.0185 31.0144 35.9935C31.3595 35.9686 31.6922 35.8545 31.98 35.6625C32.0121 35.6409 32.043 35.6175 32.0725 35.5925L35.1113 33L40.9863 35.6312C40.9863 35.6312 40.9963 35.6312 41 35.6312C40.8402 36.8428 40.2444 37.9547 39.3241 38.7588C38.4038 39.5628 37.2221 40.0041 36 40Z" fill="#8A2EFF"/>
</svg>
