<svg xmlns="http://www.w3.org/2000/svg" xmlns:xlink="http://www.w3.org/1999/xlink" width="1366" zoomAndPan="magnify" viewBox="0 0 1024.5 576" height="768" preserveAspectRatio="xMidYMid meet" version="1.0"><defs><clipPath id="ebf905e1b8"><path d="M 0 478 L 260 478 L 260 575.859375 L 0 575.859375 Z M 0 478 " clip-rule="nonzero"/></clipPath><clipPath id="b2764415c9"><path d="M -558.265625 717.328125 L -215.054688 57.628906 L 493.855469 426.441406 L 150.644531 1086.140625 Z M -558.265625 717.328125 " clip-rule="nonzero"/></clipPath><clipPath id="5c06733908"><path d="M -558.265625 717.328125 L -215.054688 57.628906 L 493.855469 426.441406 L 150.644531 1086.140625 Z M -558.265625 717.328125 " clip-rule="nonzero"/></clipPath><clipPath id="977c8db0e3"><path d="M 0 308 L 240 308 L 240 575.859375 L 0 575.859375 Z M 0 308 " clip-rule="nonzero"/></clipPath><clipPath id="50ef81d6ce"><path d="M -558.265625 717.328125 L -215.054688 57.628906 L 493.855469 426.441406 L 150.644531 1086.140625 Z M -558.265625 717.328125 " clip-rule="nonzero"/></clipPath><clipPath id="6f9e483fbd"><path d="M -558.265625 717.328125 L -215.054688 57.628906 L 493.855469 426.441406 L 150.644531 1086.140625 Z M -558.265625 717.328125 " clip-rule="nonzero"/></clipPath></defs><g clip-path="url(#ebf905e1b8)"><g clip-path="url(#b2764415c9)"><g clip-path="url(#5c06733908)"><path fill="#8a2eff" d="M -21.527344 688.695312 L -1.632812 990.96875 L 259.988281 780.730469 L 240.078125 478.460938 Z M -21.527344 688.695312 " fill-opacity="1" fill-rule="nonzero"/></g></g></g><g clip-path="url(#977c8db0e3)"><g clip-path="url(#50ef81d6ce)"><g clip-path="url(#6f9e483fbd)"><path fill="#d4a6ff" d="M -32.128906 702.3125 L 239.796875 479.035156 L -69.765625 308.425781 L -341.691406 531.710938 Z M -32.128906 702.3125 " fill-opacity="1" fill-rule="nonzero"/></g></g></g></svg>