<svg xmlns="http://www.w3.org/2000/svg" xmlns:xlink="http://www.w3.org/1999/xlink" width="1366" zoomAndPan="magnify" viewBox="0 0 1024.5 576" height="768" preserveAspectRatio="xMidYMid meet" version="1.0"><defs><clipPath id="807733ca9b"><path d="M 0 0.140625 L 450 0.140625 L 450 224 L 0 224 Z M 0 0.140625 " clip-rule="nonzero"/></clipPath><clipPath id="9d524ddfde"><path d="M -495.414062 135.054688 L -264.417969 -571.796875 L 495.160156 -323.570312 L 264.164062 383.28125 Z M -495.414062 135.054688 " clip-rule="nonzero"/></clipPath><clipPath id="730af0b3d1"><path d="M 90 0.140625 L 354 0.140625 L 354 166 L 90 166 Z M 90 0.140625 " clip-rule="nonzero"/></clipPath><clipPath id="30ce9a926a"><path d="M -495.414062 135.054688 L -264.417969 -571.796875 L 495.160156 -323.570312 L 264.164062 383.28125 Z M -495.414062 135.054688 " clip-rule="nonzero"/></clipPath><clipPath id="4d358bea4b"><path d="M -264.445312 -571.707031 L -495.441406 135.140625 L 264.136719 383.371094 L 495.132812 -323.480469 Z M -264.445312 -571.707031 " clip-rule="nonzero"/></clipPath><clipPath id="ac5d935409"><path d="M 0 0.140625 L 124 0.140625 L 124 166 L 0 166 Z M 0 0.140625 " clip-rule="nonzero"/></clipPath><clipPath id="f373300d7b"><path d="M -495.414062 135.054688 L -264.417969 -571.796875 L 495.160156 -323.570312 L 264.164062 383.28125 Z M -495.414062 135.054688 " clip-rule="nonzero"/></clipPath><clipPath id="cdafe9a545"><path d="M -264.445312 -571.707031 L -495.441406 135.140625 L 264.136719 383.371094 L 495.132812 -323.480469 Z M -264.445312 -571.707031 " clip-rule="nonzero"/></clipPath><clipPath id="a018a62f11"><rect x="0" width="450" y="0" height="224"/></clipPath></defs><g clip-path="url(#807733ca9b)"><g clip-path="url(#9d524ddfde)"><g transform="matrix(1, 0, 0, 1, 0, -0.000000000000058398)"><g clip-path="url(#a018a62f11)"><g clip-path="url(#730af0b3d1)"><g clip-path="url(#30ce9a926a)"><g clip-path="url(#4d358bea4b)"><path fill="#8a2eff" d="M 90.753906 -168.296875 L 320.582031 -365.640625 L 353.515625 -31.632812 L 123.679688 165.699219 Z M 90.753906 -168.296875 " fill-opacity="1" fill-rule="nonzero"/></g></g></g><g clip-path="url(#ac5d935409)"><g clip-path="url(#f373300d7b)"><g clip-path="url(#cdafe9a545)"><path fill="#d4a6ff" d="M 93.058594 -185.398438 L 123.894531 165.09375 L -214.621094 63.390625 L -245.449219 -287.109375 Z M 93.058594 -185.398438 " fill-opacity="1" fill-rule="nonzero"/></g></g></g></g></g></g></g></svg>