<svg xmlns="http://www.w3.org/2000/svg" xmlns:xlink="http://www.w3.org/1999/xlink" width="1366" zoomAndPan="magnify" viewBox="0 0 1024.5 576" height="768" preserveAspectRatio="xMidYMid meet" version="1.0"><defs><clipPath id="1622e8b27f"><path d="M 63.539062 455 L 242 455 L 242 575.859375 L 63.539062 575.859375 Z M 63.539062 455 " clip-rule="nonzero"/></clipPath><clipPath id="8c064a0eb2"><path d="M 812 457 L 966.097656 457 L 966.097656 575.859375 L 812 575.859375 Z M 812 457 " clip-rule="nonzero"/></clipPath><clipPath id="57f177f973"><path d="M 96 492 L 287 492 L 287 575.859375 L 96 575.859375 Z M 96 492 " clip-rule="nonzero"/></clipPath><clipPath id="6364e4cc00"><path d="M 286 524 L 479 524 L 479 575.859375 L 286 575.859375 Z M 286 524 " clip-rule="nonzero"/></clipPath><clipPath id="c39f9cc972"><path d="M 148 534 L 393 534 L 393 575.859375 L 148 575.859375 Z M 148 534 " clip-rule="nonzero"/></clipPath><clipPath id="1f69b78d58"><path d="M 453 524 L 721 524 L 721 575.859375 L 453 575.859375 Z M 453 524 " clip-rule="nonzero"/></clipPath><clipPath id="3a950fc1ca"><path d="M 356 548 L 602 548 L 602 575.859375 L 356 575.859375 Z M 356 548 " clip-rule="nonzero"/></clipPath><clipPath id="b36c426611"><path d="M 607 522 L 872 522 L 872 575.859375 L 607 575.859375 Z M 607 522 " clip-rule="nonzero"/></clipPath><clipPath id="b42d820699"><path d="M 730 492 L 931 492 L 931 575.859375 L 730 575.859375 Z M 730 492 " clip-rule="nonzero"/></clipPath><clipPath id="b0cec9879b"><path d="M 801 0.140625 L 966.097656 0.140625 L 966.097656 132 L 801 132 Z M 801 0.140625 " clip-rule="nonzero"/></clipPath><clipPath id="a4fdd18454"><path d="M 63.539062 0.140625 L 231 0.140625 L 231 127 L 63.539062 127 Z M 63.539062 0.140625 " clip-rule="nonzero"/></clipPath><clipPath id="c8ef5313e5"><path d="M 747 0.140625 L 948 0.140625 L 948 104 L 747 104 Z M 747 0.140625 " clip-rule="nonzero"/></clipPath><clipPath id="a9d22ae152"><path d="M 560 0.140625 L 757 0.140625 L 757 76 L 560 76 Z M 560 0.140625 " clip-rule="nonzero"/></clipPath><clipPath id="0793af3b2c"><path d="M 646 0.140625 L 892 0.140625 L 892 58 L 646 58 Z M 646 0.140625 " clip-rule="nonzero"/></clipPath><clipPath id="ea6c828785"><path d="M 319 0.140625 L 586 0.140625 L 586 68 L 319 68 Z M 319 0.140625 " clip-rule="nonzero"/></clipPath><clipPath id="b4a273ea19"><path d="M 437 0.140625 L 683 0.140625 L 683 44 L 437 44 Z M 437 0.140625 " clip-rule="nonzero"/></clipPath><clipPath id="c762f195b6"><path d="M 167 0.140625 L 433 0.140625 L 433 70 L 167 70 Z M 167 0.140625 " clip-rule="nonzero"/></clipPath><clipPath id="c45cbbe778"><path d="M 108 0.140625 L 309 0.140625 L 309 100 L 108 100 Z M 108 0.140625 " clip-rule="nonzero"/></clipPath><clipPath id="13dd634394"><path d="M 63.539062 45 L 124 45 L 124 219 L 63.539062 219 Z M 63.539062 45 " clip-rule="nonzero"/></clipPath><clipPath id="242b51599f"><path d="M 63.539062 297 L 129 297 L 129 529 L 63.539062 529 Z M 63.539062 297 " clip-rule="nonzero"/></clipPath><clipPath id="4e4d7d9a58"><path d="M 63.539062 120 L 99 120 L 99 365 L 63.539062 365 Z M 63.539062 120 " clip-rule="nonzero"/></clipPath><clipPath id="c6a3187095"><path d="M 914 113 L 966.097656 113 L 966.097656 254 L 914 254 Z M 914 113 " clip-rule="nonzero"/></clipPath><clipPath id="75bf852ffd"><path d="M 915 251 L 966.097656 251 L 966.097656 518 L 915 518 Z M 915 251 " clip-rule="nonzero"/></clipPath><clipPath id="f43d4f3fa3"><path d="M 940 154 L 966.097656 154 L 966.097656 400 L 940 400 Z M 940 154 " clip-rule="nonzero"/></clipPath></defs><g clip-path="url(#1622e8b27f)"><path fill="#d4a6ff" d="M 171.394531 455.851562 L 241.960938 604.59375 L 77.398438 610.898438 L 6.832031 462.152344 Z M 171.394531 455.851562 " fill-opacity="1" fill-rule="nonzero"/></g><g clip-path="url(#8c064a0eb2)"><path fill="#d4a6ff" d="M 891.128906 457.492188 L 812.699219 610.972656 L 985.101562 612.5 L 1063.53125 459.015625 Z M 891.128906 457.492188 " fill-opacity="1" fill-rule="nonzero"/></g><g clip-path="url(#57f177f973)"><path fill="#8a2eff" d="M 215.550781 635.875 L 96.542969 595.851562 L 167.070312 492.003906 L 286.078125 532.027344 Z M 215.550781 635.875 " fill-opacity="1" fill-rule="nonzero"/></g><g clip-path="url(#6364e4cc00)"><path fill="#8a2eff" d="M 409.347656 626.871094 L 286.945312 625.121094 L 356.582031 524.476562 L 478.984375 526.226562 Z M 409.347656 626.871094 " fill-opacity="1" fill-rule="nonzero"/></g><g clip-path="url(#c39f9cc972)"><path fill="#d4a6ff" d="M 284.996094 621.234375 L 148.085938 640.011719 L 255.496094 553.089844 L 392.40625 534.3125 Z M 284.996094 621.234375 " fill-opacity="1" fill-rule="nonzero"/></g><g clip-path="url(#1f69b78d58)"><path fill="#8a2eff" d="M 587.464844 646.808594 L 720.144531 584.59375 L 586.605469 524.230469 L 453.929688 586.453125 Z M 587.464844 646.808594 " fill-opacity="1" fill-rule="nonzero"/></g><g clip-path="url(#3a950fc1ca)"><path fill="#d4a6ff" d="M 494.257812 649.835938 L 601.320312 562.40625 L 463.796875 548.304688 L 356.734375 635.738281 Z M 494.257812 649.835938 " fill-opacity="1" fill-rule="nonzero"/></g><g clip-path="url(#b36c426611)"><path fill="#d4a6ff" d="M 746.808594 643.300781 L 607.132812 599.46875 L 731.605469 522.445312 L 871.277344 566.273438 Z M 746.808594 643.300781 " fill-opacity="1" fill-rule="nonzero"/></g><g clip-path="url(#b42d820699)"><path fill="#8a2eff" d="M 831.988281 644.09375 L 930.339844 566.0625 L 828.734375 492.316406 L 730.382812 570.347656 Z M 831.988281 644.09375 " fill-opacity="1" fill-rule="nonzero"/></g><g clip-path="url(#b0cec9879b)"><path fill="#d4a6ff" d="M 884.839844 125.492188 L 801.839844 -20.449219 L 969.667969 -14.433594 L 1052.667969 131.507812 Z M 884.839844 125.492188 " fill-opacity="1" fill-rule="nonzero"/></g><g clip-path="url(#a4fdd18454)"><path fill="#d4a6ff" d="M 147.640625 120.785156 L 230.640625 -25.15625 L 62.8125 -19.140625 L -20.1875 126.800781 Z M 147.640625 120.785156 " fill-opacity="1" fill-rule="nonzero"/></g><g clip-path="url(#c8ef5313e5)"><path fill="#8a2eff" d="M 849.539062 -48.121094 L 947.882812 29.910156 L 846.28125 103.65625 L 747.929688 25.625 Z M 849.539062 -48.121094 " fill-opacity="1" fill-rule="nonzero"/></g><g clip-path="url(#a9d22ae152)"><path fill="#8a2eff" d="M 634.214844 -28.859375 L 756.460938 -22.378906 L 682.980469 75.496094 L 560.738281 69.019531 Z M 634.214844 -28.859375 " fill-opacity="1" fill-rule="nonzero"/></g><g clip-path="url(#0793af3b2c)"><path fill="#d4a6ff" d="M 754.222656 -29.53125 L 891.136719 -48.308594 L 783.722656 38.617188 L 646.8125 57.394531 Z M 754.222656 -29.53125 " fill-opacity="1" fill-rule="nonzero"/></g><g clip-path="url(#ea6c828785)"><path fill="#8a2eff" d="M 451.753906 -55.105469 L 319.074219 7.117188 L 452.613281 67.472656 L 585.292969 5.253906 Z M 451.753906 -55.105469 " fill-opacity="1" fill-rule="nonzero"/></g><g clip-path="url(#b4a273ea19)"><path fill="#d4a6ff" d="M 544.960938 -58.128906 L 437.902344 29.300781 L 575.425781 43.398438 L 682.488281 -44.03125 Z M 544.960938 -58.128906 " fill-opacity="1" fill-rule="nonzero"/></g><g clip-path="url(#c762f195b6)"><path fill="#d4a6ff" d="M 292.414062 -51.59375 L 432.085938 -7.765625 L 307.613281 69.261719 L 167.941406 25.433594 Z M 292.414062 -51.59375 " fill-opacity="1" fill-rule="nonzero"/></g><g clip-path="url(#c45cbbe778)"><path fill="#8a2eff" d="M 207.226562 -52.390625 L 108.875 25.640625 L 210.480469 99.390625 L 308.832031 21.359375 Z M 207.226562 -52.390625 " fill-opacity="1" fill-rule="nonzero"/></g><g clip-path="url(#13dd634394)"><path fill="#8a2eff" d="M 21.265625 158.875 L 27.148438 45.636719 L 123.421875 105.601562 L 117.535156 218.839844 Z M 21.265625 158.875 " fill-opacity="1" fill-rule="nonzero"/></g><g clip-path="url(#242b51599f)"><path fill="#8a2eff" d="M 2.40625 413.484375 L 66.316406 528.863281 L 128.601562 412.601562 L 64.691406 297.222656 Z M 2.40625 413.484375 " fill-opacity="1" fill-rule="nonzero"/></g><g clip-path="url(#4e4d7d9a58)"><path fill="#d4a6ff" d="M -3.484375 257.582031 L 83.976562 364.605469 L 98.082031 227.128906 L 10.617188 120.105469 Z M -3.484375 257.582031 " fill-opacity="1" fill-rule="nonzero"/></g><g clip-path="url(#c6a3187095)"><path fill="#8a2eff" d="M 977.675781 226.679688 L 977.675781 113.597656 L 914.578125 134.8125 L 918.910156 253.3125 Z M 977.675781 226.679688 " fill-opacity="1" fill-rule="nonzero"/></g><g clip-path="url(#75bf852ffd)"><path fill="#8a2eff" d="M 1038.601562 385.332031 L 976.355469 517.960938 L 915.980469 384.472656 L 978.21875 251.839844 Z M 1038.601562 385.332031 " fill-opacity="1" fill-rule="nonzero"/></g><g clip-path="url(#f43d4f3fa3)"><path fill="#d4a6ff" d="M 1041.628906 292.15625 L 954.167969 399.179688 L 940.0625 261.703125 L 1027.523438 154.679688 Z M 1041.628906 292.15625 " fill-opacity="1" fill-rule="nonzero"/></g></svg>