<svg xmlns="http://www.w3.org/2000/svg" xmlns:xlink="http://www.w3.org/1999/xlink" width="1366" zoomAndPan="magnify" viewBox="0 0 1024.5 576" height="768" preserveAspectRatio="xMidYMid meet" version="1.0"><defs><clipPath id="4da52a1739"><path d="M 0 453 L 225 453 L 225 575.859375 L 0 575.859375 Z M 0 453 " clip-rule="nonzero"/></clipPath><clipPath id="eefdc83cf8"><path d="M 0 436 L 87 436 L 87 575.859375 L 0 575.859375 Z M 0 436 " clip-rule="nonzero"/></clipPath><clipPath id="7357f4e538"><path d="M 773 454 L 1015 454 L 1015 575.859375 L 773 575.859375 Z M 773 454 " clip-rule="nonzero"/></clipPath><clipPath id="d26a199cf3"><path d="M 84 488 L 267 488 L 267 575.859375 L 84 575.859375 Z M 84 488 " clip-rule="nonzero"/></clipPath><clipPath id="868cda4ebb"><path d="M 267 519 L 453 519 L 453 575.859375 L 267 575.859375 Z M 267 519 " clip-rule="nonzero"/></clipPath><clipPath id="cd06262234"><path d="M 134 528 L 370 528 L 370 575.859375 L 134 575.859375 Z M 134 528 " clip-rule="nonzero"/></clipPath><clipPath id="fc69f0ce70"><path d="M 428 519 L 685 519 L 685 575.859375 L 428 575.859375 Z M 428 519 " clip-rule="nonzero"/></clipPath><clipPath id="f3cb0fa2dd"><path d="M 334 542 L 571 542 L 571 575.859375 L 334 575.859375 Z M 334 542 " clip-rule="nonzero"/></clipPath><clipPath id="255282fba3"><path d="M 575 517 L 830 517 L 830 575.859375 L 575 575.859375 Z M 575 517 " clip-rule="nonzero"/></clipPath><clipPath id="16bef70c63"><path d="M 694 488 L 887 488 L 887 575.859375 L 694 575.859375 Z M 694 488 " clip-rule="nonzero"/></clipPath><clipPath id="f491d923b9"><path d="M 933 431 L 1024 431 L 1024 575.859375 L 933 575.859375 Z M 933 431 " clip-rule="nonzero"/></clipPath><clipPath id="aff642e2b5"><path d="M 915 480 L 1024 480 L 1024 575.859375 L 915 575.859375 Z M 915 480 " clip-rule="nonzero"/></clipPath><clipPath id="1e4f14742b"><path d="M 784 0.140625 L 1024 0.140625 L 1024 128 L 784 128 Z M 784 0.140625 " clip-rule="nonzero"/></clipPath><clipPath id="232cd3e8b1"><path d="M 0 0.140625 L 236 0.140625 L 236 123 L 0 123 Z M 0 0.140625 " clip-rule="nonzero"/></clipPath><clipPath id="dc001e1913"><path d="M 732 0.140625 L 926 0.140625 L 926 101 L 732 101 Z M 732 0.140625 " clip-rule="nonzero"/></clipPath><clipPath id="e43b9f1043"><path d="M 552 0.140625 L 742 0.140625 L 742 74 L 552 74 Z M 552 0.140625 " clip-rule="nonzero"/></clipPath><clipPath id="84e3e2f57b"><path d="M 635 0.140625 L 871 0.140625 L 871 57 L 635 57 Z M 635 0.140625 " clip-rule="nonzero"/></clipPath><clipPath id="aeb5651e84"><path d="M 320 0.140625 L 577 0.140625 L 577 66 L 320 66 Z M 320 0.140625 " clip-rule="nonzero"/></clipPath><clipPath id="0cac859e30"><path d="M 434 0.140625 L 670 0.140625 L 670 43 L 434 43 Z M 434 0.140625 " clip-rule="nonzero"/></clipPath><clipPath id="c7455cb9fa"><path d="M 174 0.140625 L 430 0.140625 L 430 68 L 174 68 Z M 174 0.140625 " clip-rule="nonzero"/></clipPath><clipPath id="71d273f8d9"><path d="M 118 0.140625 L 311 0.140625 L 311 97 L 118 97 Z M 118 0.140625 " clip-rule="nonzero"/></clipPath><clipPath id="370c7e7dc8"><path d="M 978 112 L 1024 112 L 1024 257 L 978 257 Z M 978 112 " clip-rule="nonzero"/></clipPath><clipPath id="c151c576cb"><path d="M 953 0.140625 L 1024 0.140625 L 1024 156 L 953 156 Z M 953 0.140625 " clip-rule="nonzero"/></clipPath><clipPath id="1eb10cf665"><path d="M 966 241 L 1024 241 L 1024 498 L 966 498 Z M 966 241 " clip-rule="nonzero"/></clipPath><clipPath id="ebf0648979"><path d="M 986 137 L 1024 137 L 1024 373 L 986 373 Z M 986 137 " clip-rule="nonzero"/></clipPath><clipPath id="b16dc8a6e0"><path d="M 0 0.140625 L 82 0.140625 L 82 95 L 0 95 Z M 0 0.140625 " clip-rule="nonzero"/></clipPath></defs><g clip-path="url(#4da52a1739)"><path fill="#d4a6ff" d="M 156.664062 453.355469 L 224.554688 596.527344 L 66.238281 602.59375 L -1.648438 459.421875 Z M 156.664062 453.355469 " fill-opacity="1" fill-rule="nonzero"/></g><g clip-path="url(#eefdc83cf8)"><path fill="#d4a6ff" d="M -67.710938 592.339844 L -94.886719 436.230469 L 59.292969 472.691406 L 86.464844 628.800781 Z M -67.710938 592.339844 " fill-opacity="1" fill-rule="nonzero"/></g><g clip-path="url(#7357f4e538)"><path fill="#d4a6ff" d="M 849.085938 454.933594 L 773.628906 602.667969 L 939.488281 604.136719 L 1014.941406 456.40625 Z M 849.085938 454.933594 " fill-opacity="1" fill-rule="nonzero"/></g><g clip-path="url(#d26a199cf3)"><path fill="#8a2eff" d="M 199.144531 626.636719 L 84.652344 588.113281 L 152.507812 488.15625 L 266.996094 526.679688 Z M 199.144531 626.636719 " fill-opacity="1" fill-rule="nonzero"/></g><g clip-path="url(#868cda4ebb)"><path fill="#8a2eff" d="M 385.585938 617.972656 L 267.832031 616.28125 L 334.828125 519.410156 L 452.582031 521.097656 Z M 385.585938 617.972656 " fill-opacity="1" fill-rule="nonzero"/></g><g clip-path="url(#cd06262234)"><path fill="#d4a6ff" d="M 265.957031 612.542969 L 134.242188 630.621094 L 237.574219 546.953125 L 369.289062 528.878906 Z M 265.957031 612.542969 " fill-opacity="1" fill-rule="nonzero"/></g><g clip-path="url(#fc69f0ce70)"><path fill="#8a2eff" d="M 556.945312 637.164062 L 684.589844 577.277344 L 556.117188 519.175781 L 428.476562 579.070312 Z M 556.945312 637.164062 " fill-opacity="1" fill-rule="nonzero"/></g><g clip-path="url(#f3cb0fa2dd)"><path fill="#d4a6ff" d="M 467.273438 640.078125 L 570.273438 555.921875 L 437.96875 542.347656 L 334.972656 626.503906 Z M 467.273438 640.078125 " fill-opacity="1" fill-rule="nonzero"/></g><g clip-path="url(#255282fba3)"><path fill="#d4a6ff" d="M 710.238281 633.785156 L 575.867188 591.597656 L 695.617188 517.457031 L 829.988281 559.644531 Z M 710.238281 633.785156 " fill-opacity="1" fill-rule="nonzero"/></g><g clip-path="url(#16bef70c63)"><path fill="#8a2eff" d="M 792.1875 634.546875 L 886.804688 559.441406 L 789.058594 488.457031 L 694.441406 563.566406 Z M 792.1875 634.546875 " fill-opacity="1" fill-rule="nonzero"/></g><g clip-path="url(#f491d923b9)"><path fill="#d4a6ff" d="M 1096.726562 591.199219 L 1142.777344 431.835938 L 979.65625 461.871094 L 933.605469 621.242188 Z M 1096.726562 591.199219 " fill-opacity="1" fill-rule="nonzero"/></g><g clip-path="url(#aff642e2b5)"><path fill="#8a2eff" d="M 915.617188 610.492188 L 1025.09375 591.386719 L 1032.414062 480.476562 L 922.9375 499.589844 Z M 915.617188 610.492188 " fill-opacity="1" fill-rule="nonzero"/></g><g clip-path="url(#1e4f14742b)"><path fill="#d4a6ff" d="M 864.621094 121.582031 L 784.769531 -18.890625 L 946.226562 -13.101562 L 1026.074219 127.371094 Z M 864.621094 121.582031 " fill-opacity="1" fill-rule="nonzero"/></g><g clip-path="url(#232cd3e8b1)"><path fill="#d4a6ff" d="M 155.398438 117.050781 L 235.25 -23.421875 L 73.792969 -17.632812 L -6.058594 122.839844 Z M 155.398438 117.050781 " fill-opacity="1" fill-rule="nonzero"/></g><g clip-path="url(#dc001e1913)"><path fill="#8a2eff" d="M 830.652344 -45.53125 L 925.269531 29.578125 L 827.523438 100.5625 L 732.90625 25.453125 Z M 830.652344 -45.53125 " fill-opacity="1" fill-rule="nonzero"/></g><g clip-path="url(#e43b9f1043)"><path fill="#8a2eff" d="M 623.507812 -26.988281 L 741.105469 -20.75 L 670.417969 73.460938 L 552.820312 67.222656 Z M 623.507812 -26.988281 " fill-opacity="1" fill-rule="nonzero"/></g><g clip-path="url(#84e3e2f57b)"><path fill="#d4a6ff" d="M 738.953125 -27.632812 L 870.671875 -45.707031 L 767.339844 37.960938 L 635.625 56.035156 Z M 738.953125 -27.632812 " fill-opacity="1" fill-rule="nonzero"/></g><g clip-path="url(#aeb5651e84)"><path fill="#8a2eff" d="M 447.96875 -52.25 L 320.328125 7.640625 L 448.796875 65.734375 L 576.4375 5.84375 Z M 447.96875 -52.25 " fill-opacity="1" fill-rule="nonzero"/></g><g clip-path="url(#0cac859e30)"><path fill="#d4a6ff" d="M 537.636719 -55.164062 L 434.644531 28.992188 L 566.945312 42.5625 L 669.941406 -41.59375 Z M 537.636719 -55.164062 " fill-opacity="1" fill-rule="nonzero"/></g><g clip-path="url(#c7455cb9fa)"><path fill="#d4a6ff" d="M 294.675781 -48.871094 L 429.046875 -6.6875 L 309.300781 67.457031 L 174.929688 25.269531 Z M 294.675781 -48.871094 " fill-opacity="1" fill-rule="nonzero"/></g><g clip-path="url(#71d273f8d9)"><path fill="#8a2eff" d="M 212.726562 -49.636719 L 118.109375 25.472656 L 215.855469 96.457031 L 310.472656 21.347656 Z M 212.726562 -49.636719 " fill-opacity="1" fill-rule="nonzero"/></g><g clip-path="url(#370c7e7dc8)"><path fill="#8a2eff" d="M 1057.914062 244.109375 L 1058.515625 112.460938 L 978.515625 116.648438 L 983.371094 256.011719 Z M 1057.914062 244.109375 " fill-opacity="1" fill-rule="nonzero"/></g><g clip-path="url(#c151c576cb)"><path fill="#8a2eff" d="M 1094.945312 137.128906 L 1056.75 -23.511719 L 953.984375 -14.683594 L 1001.558594 155.109375 Z M 1094.945312 137.128906 " fill-opacity="1" fill-rule="nonzero"/></g><g clip-path="url(#1eb10cf665)"><path fill="#8a2eff" d="M 1123.300781 370.160156 L 1044.015625 497.6875 L 966.523438 369.058594 L 1045.808594 241.53125 Z M 1123.300781 370.160156 " fill-opacity="1" fill-rule="nonzero"/></g><g clip-path="url(#ebf0648979)"><path fill="#d4a6ff" d="M 1118.464844 274.507812 L 1017.328125 372.425781 L 986.773438 235.003906 L 1087.902344 137.085938 Z M 1118.464844 274.507812 " fill-opacity="1" fill-rule="nonzero"/></g><path fill="#8a2eff" d="M -87.449219 183.652344 L -61.625 64.136719 L 51.152344 111.335938 L 25.328125 230.851562 Z M -87.449219 183.652344 " fill-opacity="1" fill-rule="nonzero"/><g clip-path="url(#b16dc8a6e0)"><path fill="#d4a6ff" d="M 27.585938 94.964844 L -76.796875 75.753906 L -22.871094 -15.675781 L 81.511719 3.535156 Z M 27.585938 94.964844 " fill-opacity="1" fill-rule="nonzero"/></g><path fill="#8a2eff" d="M -110.171875 407.996094 L -26.238281 518.898438 L 56.136719 406.832031 L -27.796875 295.929688 Z M -110.171875 407.996094 " fill-opacity="1" fill-rule="nonzero"/><path fill="#d4a6ff" d="M -121.597656 272.816406 L -12.125 368.234375 L 26.773438 228.308594 L -82.699219 132.894531 Z M -121.597656 272.816406 " fill-opacity="1" fill-rule="nonzero"/></svg>