<svg width="1739" height="1137" viewBox="0 0 1739 1137" fill="none" xmlns="http://www.w3.org/2000/svg">
<path d="M307.383 824.948L420.605 1063.68L156.575 1073.8L43.3534 835.06L307.383 824.948Z" fill="#D4A6FF"/>
<path d="M1462.17 827.581L1336.33 1073.92L1612.94 1076.37L1738.78 830.03L1462.17 827.581Z" fill="#D4A6FF"/>
<path d="M378.23 1113.89L187.286 1049.65L300.449 882.974L491.392 947.215L378.23 1113.89Z" fill="#8A2EFF"/>
<path d="M689.17 1099.44L492.78 1096.63L604.512 935.092L800.901 937.903L689.17 1099.44Z" fill="#8A2EFF"/>
<path d="M489.657 1090.39L269.987 1120.53L442.321 981.018L661.991 950.878L489.657 1090.39Z" fill="#D4A6FF"/>
<path d="M974.954 1131.44L1187.83 1031.58L973.576 934.7L760.699 1034.57L974.954 1131.44Z" fill="#8A2EFF"/>
<path d="M825.407 1136.3L997.181 995.97L776.531 973.341L604.756 1113.67L825.407 1136.3Z" fill="#D4A6FF"/>
<path d="M1230.61 1125.81L1006.51 1055.46L1206.22 931.834L1430.32 1002.18L1230.61 1125.81Z" fill="#D4A6FF"/>
<path d="M1367.28 1127.08L1525.08 1001.84L1362.06 883.476L1204.26 1008.72L1367.28 1127.08Z" fill="#8A2EFF"/>
<path d="M1452.08 294.718L1318.91 60.4816L1588.18 70.1355L1721.35 304.372L1452.08 294.718Z" fill="#D4A6FF"/>
<path d="M269.272 287.163L402.442 52.9267L133.17 62.5807L-0.000125852 296.817L269.272 287.163Z" fill="#D4A6FF"/>
<path d="M1395.44 16.0627L1553.23 141.304L1390.21 259.671L1232.41 134.429L1395.44 16.0627Z" fill="#8A2EFF"/>
<path d="M1049.96 46.9828L1246.1 57.382L1128.2 214.476L932.07 204.077L1049.96 46.9828Z" fill="#8A2EFF"/>
<path d="M1242.51 45.905L1462.18 15.7657L1289.84 155.281L1070.17 185.42L1242.51 45.905Z" fill="#D4A6FF"/>
<path d="M757.21 4.85552L544.333 104.723L758.588 201.598L971.465 101.731L757.21 4.85552Z" fill="#8A2EFF"/>
<path d="M906.758 2.10305e-07L734.983 140.329L955.633 162.958L1127.41 22.6294L906.758 2.10305e-07Z" fill="#D4A6FF"/>
<path d="M501.553 10.4919L725.651 80.8347L525.943 204.465L301.845 134.122L501.553 10.4919Z" fill="#D4A6FF"/>
<path d="M364.878 9.21505L207.078 134.457L370.099 252.823L527.898 127.581L364.878 9.21505Z" fill="#8A2EFF"/>
<path d="M66.5098 348.3L75.9516 166.551L230.415 262.795L220.973 444.544L66.5098 348.3Z" fill="#8A2EFF"/>
<path d="M36.2511 756.95L138.791 942.137L238.726 755.532L136.186 570.345L36.2511 756.95Z" fill="#8A2EFF"/>
<path d="M26.7984 506.723L167.127 678.498L189.757 457.847L49.4278 286.073L26.7984 506.723Z" fill="#D4A6FF"/>
<path d="M1601.03 457.126L1601.03 275.626L1499.79 309.674L1506.74 499.869L1601.03 457.126Z" fill="#8A2EFF"/>
<path d="M1698.78 711.762L1598.91 924.639L1502.04 710.384L1601.9 497.507L1698.78 711.762Z" fill="#8A2EFF"/>
<path d="M1703.64 562.214L1563.31 733.989L1540.68 513.338L1681.01 341.564L1703.64 562.214Z" fill="#D4A6FF"/>
</svg>
