<svg width="201" height="47" viewBox="0 0 201 47" fill="none" xmlns="http://www.w3.org/2000/svg">
<rect width="201" height="47" rx="23.5" fill="url(#paint0_linear_76_186)"/>
<path d="M26.6352 19.46V22.16L17.5152 24.96V22.36L26.6352 19.46ZM17.5152 23.86L26.6352 26.64V29.4L17.5152 26.5V23.86ZM19.8152 23.64V25.28H19.2152V23.64H19.8152ZM34.0893 31.38C32.9826 31.38 32.0226 31.1733 31.2093 30.76C30.4093 30.3333 29.7893 29.72 29.3493 28.92C28.9226 28.12 28.7093 27.1467 28.7093 26V25.26H31.9493V26.18C31.9493 26.82 32.136 27.34 32.5093 27.74C32.896 28.1267 33.4226 28.32 34.0893 28.32C34.7426 28.32 35.256 28.1267 35.6293 27.74C36.016 27.34 36.2093 26.82 36.2093 26.18V18.86H39.4893V26C39.4893 27.1467 39.2693 28.12 38.8293 28.92C38.4026 29.72 37.7826 30.3333 36.9693 30.76C36.1693 31.1733 35.2093 31.38 34.0893 31.38ZM30.4093 19.26V16.4H39.4893V19.26H30.4093ZM46.0409 31.34C44.7742 31.34 43.8009 30.9333 43.1209 30.12C42.4409 29.2933 42.1009 28.0533 42.1009 26.4V20.04H45.3009V26.56C45.3009 27.1467 45.4675 27.6133 45.8009 27.96C46.1342 28.3067 46.5809 28.48 47.1409 28.48C47.7142 28.48 48.1809 28.3 48.5409 27.94C48.9009 27.58 49.0809 27.0933 49.0809 26.48V20.04H52.2809V31H49.7409V26.38H49.9609C49.9609 27.4867 49.8142 28.4133 49.5209 29.16C49.2409 29.8933 48.8209 30.44 48.2609 30.8C47.7009 31.16 47.0075 31.34 46.1809 31.34H46.0409ZM55.3715 31V16.4H58.5915V31H55.3715ZM54.0715 18.76V16.4H58.5915V18.76H54.0715ZM62.0601 31V20.04H65.2601V31H62.0601ZM60.6001 22.4V20.04H65.2601V22.4H60.6001ZM63.3001 18.96C62.7001 18.96 62.2534 18.8067 61.9601 18.5C61.6801 18.18 61.5401 17.78 61.5401 17.3C61.5401 16.8067 61.6801 16.4067 61.9601 16.1C62.2534 15.78 62.7001 15.62 63.3001 15.62C63.9001 15.62 64.3401 15.78 64.6201 16.1C64.9134 16.4067 65.0601 16.8067 65.0601 17.3C65.0601 17.78 64.9134 18.18 64.6201 18.5C64.3401 18.8067 63.9001 18.96 63.3001 18.96ZM74.8398 31V27.76H74.2998V24.24C74.2998 23.68 74.1664 23.26 73.8998 22.98C73.6331 22.7 73.2064 22.56 72.6198 22.56C72.3264 22.56 71.9398 22.5667 71.4598 22.58C70.9798 22.5933 70.4864 22.6133 69.9798 22.64C69.4731 22.6667 69.0131 22.6933 68.5998 22.72V20.02C68.9064 19.9933 69.2664 19.9667 69.6798 19.94C70.0931 19.9133 70.5198 19.8933 70.9598 19.88C71.3998 19.8667 71.8131 19.86 72.1998 19.86C73.3198 19.86 74.2598 20.02 75.0198 20.34C75.7931 20.66 76.3798 21.1467 76.7798 21.8C77.1798 22.44 77.3798 23.2667 77.3798 24.28V31H74.8398ZM71.3398 31.28C70.5531 31.28 69.8598 31.14 69.2598 30.86C68.6731 30.58 68.2131 30.18 67.8798 29.66C67.5464 29.1267 67.3798 28.4933 67.3798 27.76C67.3798 26.96 67.5864 26.3067 67.9998 25.8C68.4131 25.28 68.9931 24.9 69.7398 24.66C70.4864 24.4067 71.3464 24.28 72.3198 24.28H74.6598V26.06H72.2998C71.7398 26.06 71.3064 26.2 70.9998 26.48C70.7064 26.7467 70.5598 27.1133 70.5598 27.58C70.5598 28.02 70.7064 28.38 70.9998 28.66C71.3064 28.9267 71.7398 29.06 72.2998 29.06C72.6598 29.06 72.9798 29 73.2598 28.88C73.5531 28.7467 73.7931 28.5267 73.9798 28.22C74.1664 27.9133 74.2731 27.4867 74.2998 26.94L75.0598 27.74C74.9931 28.5 74.8064 29.14 74.4998 29.66C74.2064 30.18 73.7931 30.58 73.2598 30.86C72.7398 31.14 72.0998 31.28 71.3398 31.28ZM80.0948 31V20.04H82.6348V24.74H82.4548C82.4548 23.62 82.5948 22.6867 82.8748 21.94C83.1681 21.1933 83.6081 20.6333 84.1948 20.26C84.7814 19.8867 85.4948 19.7 86.3348 19.7H86.4748C87.7548 19.7 88.7281 20.12 89.3948 20.96C90.0748 21.7867 90.4148 23.0467 90.4148 24.74V31H87.2148V24.56C87.2148 23.9733 87.0414 23.4933 86.6948 23.12C86.3481 22.7467 85.8814 22.56 85.2948 22.56C84.6948 22.56 84.2081 22.7533 83.8348 23.14C83.4748 23.5133 83.2948 24.0067 83.2948 24.62V31H80.0948ZM99.7616 31V27.76H99.2216V24.24C99.2216 23.68 99.0883 23.26 98.8216 22.98C98.555 22.7 98.1283 22.56 97.5416 22.56C97.2483 22.56 96.8616 22.5667 96.3816 22.58C95.9016 22.5933 95.4083 22.6133 94.9016 22.64C94.395 22.6667 93.935 22.6933 93.5216 22.72V20.02C93.8283 19.9933 94.1883 19.9667 94.6016 19.94C95.015 19.9133 95.4416 19.8933 95.8816 19.88C96.3216 19.8667 96.735 19.86 97.1216 19.86C98.2416 19.86 99.1816 20.02 99.9416 20.34C100.715 20.66 101.302 21.1467 101.702 21.8C102.102 22.44 102.302 23.2667 102.302 24.28V31H99.7616ZM96.2616 31.28C95.475 31.28 94.7816 31.14 94.1816 30.86C93.595 30.58 93.135 30.18 92.8016 29.66C92.4683 29.1267 92.3016 28.4933 92.3016 27.76C92.3016 26.96 92.5083 26.3067 92.9216 25.8C93.335 25.28 93.915 24.9 94.6616 24.66C95.4083 24.4067 96.2683 24.28 97.2416 24.28H99.5816V26.06H97.2216C96.6616 26.06 96.2283 26.2 95.9216 26.48C95.6283 26.7467 95.4816 27.1133 95.4816 27.58C95.4816 28.02 95.6283 28.38 95.9216 28.66C96.2283 28.9267 96.6616 29.06 97.2216 29.06C97.5816 29.06 97.9016 29 98.1816 28.88C98.475 28.7467 98.715 28.5267 98.9016 28.22C99.0883 27.9133 99.195 27.4867 99.2216 26.94L99.9816 27.74C99.915 28.5 99.7283 29.14 99.4216 29.66C99.1283 30.18 98.715 30.58 98.1816 30.86C97.6616 31.14 97.0216 31.28 96.2616 31.28ZM108.016 31L112.836 16.4H118.136L123.136 31H119.736L115.696 18.66L116.736 19.08H114.156L115.236 18.66L111.296 31H108.016ZM111.676 27.38L112.676 24.66H118.396L119.416 27.38H111.676ZM124.844 31V16.4H128.064V31H124.844ZM123.544 18.76V16.4H128.064V18.76H123.544ZM133.133 31L129.853 20.04H133.153L136.233 31H133.133ZM134.133 31V28.34H137.353V31H134.133ZM135.313 31L137.973 20.04H141.053L138.213 31H135.313ZM147.712 31.38C146.779 31.38 145.952 31.22 145.232 30.9C144.526 30.58 143.932 30.1533 143.452 29.62C142.986 29.0733 142.626 28.4667 142.372 27.8C142.132 27.12 142.012 26.4267 142.012 25.72V25.32C142.012 24.5867 142.132 23.8867 142.372 23.22C142.626 22.54 142.986 21.9333 143.452 21.4C143.919 20.8667 144.499 20.4467 145.192 20.14C145.899 19.82 146.699 19.66 147.592 19.66C148.766 19.66 149.752 19.9267 150.552 20.46C151.366 20.98 151.986 21.6667 152.412 22.52C152.839 23.36 153.052 24.28 153.052 25.28V26.36H143.352V24.54H151.112L150.072 25.38C150.072 24.7267 149.979 24.1667 149.792 23.7C149.606 23.2333 149.326 22.88 148.952 22.64C148.592 22.3867 148.139 22.26 147.592 22.26C147.032 22.26 146.559 22.3867 146.172 22.64C145.786 22.8933 145.492 23.2667 145.292 23.76C145.092 24.24 144.992 24.8333 144.992 25.54C144.992 26.1933 145.086 26.7667 145.272 27.26C145.459 27.74 145.752 28.1133 146.152 28.38C146.552 28.6467 147.072 28.78 147.712 28.78C148.299 28.78 148.779 28.6667 149.152 28.44C149.526 28.2133 149.779 27.9333 149.912 27.6H152.852C152.692 28.3333 152.379 28.9867 151.912 29.56C151.446 30.1333 150.859 30.58 150.152 30.9C149.446 31.22 148.632 31.38 147.712 31.38ZM159.333 31.34C157.773 31.34 156.553 31.02 155.673 30.38C154.793 29.74 154.326 28.84 154.273 27.68H157.113C157.166 28.0267 157.373 28.34 157.733 28.62C158.106 28.8867 158.66 29.02 159.393 29.02C159.953 29.02 160.413 28.9267 160.773 28.74C161.146 28.54 161.333 28.26 161.333 27.9C161.333 27.58 161.193 27.3267 160.913 27.14C160.633 26.94 160.133 26.8 159.413 26.72L158.553 26.64C157.233 26.5067 156.24 26.14 155.573 25.54C154.92 24.94 154.593 24.1733 154.593 23.24C154.593 22.4667 154.786 21.82 155.173 21.3C155.56 20.78 156.093 20.3867 156.773 20.12C157.466 19.8533 158.253 19.72 159.133 19.72C160.546 19.72 161.686 20.0333 162.553 20.66C163.42 21.2733 163.873 22.1667 163.913 23.34H161.073C161.02 22.98 160.833 22.68 160.513 22.44C160.193 22.1867 159.72 22.06 159.093 22.06C158.6 22.06 158.206 22.1533 157.913 22.34C157.62 22.5267 157.473 22.78 157.473 23.1C157.473 23.4067 157.6 23.64 157.853 23.8C158.106 23.96 158.52 24.0733 159.093 24.14L159.953 24.22C161.3 24.3667 162.346 24.74 163.093 25.34C163.84 25.94 164.213 26.7467 164.213 27.76C164.213 28.4933 164.013 29.1333 163.613 29.68C163.213 30.2133 162.646 30.6267 161.913 30.92C161.18 31.2 160.32 31.34 159.333 31.34ZM165.186 32.2L169.326 15.4H172.606L168.466 32.2H165.186ZM174.371 29.4V26.7L183.491 23.9V26.5L174.371 29.4ZM183.491 25L174.371 22.22V19.46L183.491 22.36V25ZM181.191 25.22V23.58H181.791V25.22H181.191Z" fill="black"/>
<defs>
<linearGradient id="paint0_linear_76_186" x1="100.5" y1="0" x2="100.5" y2="47" gradientUnits="userSpaceOnUse">
<stop stop-color="#BA7AFF"/>
<stop offset="1" stop-color="#D4A6FF"/>
</linearGradient>
</defs>
</svg>
