<svg xmlns="http://www.w3.org/2000/svg" xmlns:xlink="http://www.w3.org/1999/xlink" width="1366" zoomAndPan="magnify" viewBox="0 0 1024.5 435" height="580" preserveAspectRatio="xMidYMid meet" version="1.0"><defs><clipPath id="0f7aba8c20"><path d="M 0 346 L 185 346 L 185 432.644531 L 0 432.644531 Z M 0 346 " clip-rule="nonzero"/></clipPath><clipPath id="72ba075522"><path d="M 0 291 L 85 291 L 85 432.644531 L 0 432.644531 Z M 0 291 " clip-rule="nonzero"/></clipPath><clipPath id="c69d7264c6"><path d="M 765 354 L 1001 354 L 1001 432.644531 L 765 432.644531 Z M 765 354 " clip-rule="nonzero"/></clipPath><clipPath id="39c2d6961e"><path d="M 63 355 L 242 355 L 242 432.644531 L 63 432.644531 Z M 63 355 " clip-rule="nonzero"/></clipPath><clipPath id="0b7ebe2dd6"><path d="M 261 372 L 442 372 L 442 432.644531 L 261 432.644531 Z M 261 372 " clip-rule="nonzero"/></clipPath><clipPath id="a8d5dbe2a0"><path d="M 130 381 L 361 381 L 361 432.644531 L 130 432.644531 Z M 130 381 " clip-rule="nonzero"/></clipPath><clipPath id="a9d4df9c1c"><path d="M 417 371 L 668 371 L 668 432.644531 L 417 432.644531 Z M 417 371 " clip-rule="nonzero"/></clipPath><clipPath id="b829a627fd"><path d="M 326 394 L 557 394 L 557 432.644531 L 326 432.644531 Z M 326 394 " clip-rule="nonzero"/></clipPath><clipPath id="5d8976be5c"><path d="M 561 370 L 810 370 L 810 432.644531 L 561 432.644531 Z M 561 370 " clip-rule="nonzero"/></clipPath><clipPath id="ef6b280d8a"><path d="M 683 354 L 872 354 L 872 432.644531 L 683 432.644531 Z M 683 354 " clip-rule="nonzero"/></clipPath><clipPath id="4804279241"><path d="M 910 286 L 1024 286 L 1024 432.644531 L 910 432.644531 Z M 910 286 " clip-rule="nonzero"/></clipPath><clipPath id="52d3919f76"><path d="M 918 340 L 1024 340 L 1024 432.644531 L 918 432.644531 Z M 918 340 " clip-rule="nonzero"/></clipPath><clipPath id="f08d2b09bf"><path d="M 826 0.105469 L 1024 0.105469 L 1024 106 L 826 106 Z M 826 0.105469 " clip-rule="nonzero"/></clipPath><clipPath id="2314cfddc1"><path d="M 0 0.105469 L 206 0.105469 L 206 94 L 0 94 Z M 0 0.105469 " clip-rule="nonzero"/></clipPath><clipPath id="1f2cf1aaad"><path d="M 740 0.105469 L 928 0.105469 L 928 98 L 740 98 Z M 740 0.105469 " clip-rule="nonzero"/></clipPath><clipPath id="eac7a4f5e0"><path d="M 564 0.105469 L 749 0.105469 L 749 72 L 564 72 Z M 564 0.105469 " clip-rule="nonzero"/></clipPath><clipPath id="bf9673d0f5"><path d="M 645 0.105469 L 875 0.105469 L 875 55 L 645 55 Z M 645 0.105469 " clip-rule="nonzero"/></clipPath><clipPath id="27538a8457"><path d="M 338 0.105469 L 588 0.105469 L 588 64 L 338 64 Z M 338 0.105469 " clip-rule="nonzero"/></clipPath><clipPath id="01b6c13ee5"><path d="M 449 0.105469 L 680 0.105469 L 680 42 L 449 42 Z M 449 0.105469 " clip-rule="nonzero"/></clipPath><clipPath id="55fe272f15"><path d="M 196 0.105469 L 445 0.105469 L 445 66 L 196 66 Z M 196 0.105469 " clip-rule="nonzero"/></clipPath><clipPath id="5875cb7aa2"><path d="M 140 0.105469 L 329 0.105469 L 329 94 L 140 94 Z M 140 0.105469 " clip-rule="nonzero"/></clipPath><clipPath id="0ba1d90e17"><path d="M 0 0.105469 L 122 0.105469 L 122 65 L 0 65 Z M 0 0.105469 " clip-rule="nonzero"/></clipPath><clipPath id="c93b47bc52"><path d="M 979 45 L 1024 45 L 1024 186 L 979 186 Z M 979 45 " clip-rule="nonzero"/></clipPath><clipPath id="2aacc2914c"><path d="M 934 0.105469 L 1024 0.105469 L 1024 139 L 934 139 Z M 934 0.105469 " clip-rule="nonzero"/></clipPath><clipPath id="ef4a74ded6"><path d="M 968 171 L 1024 171 L 1024 421 L 968 421 Z M 968 171 " clip-rule="nonzero"/></clipPath><clipPath id="38c5286116"><path d="M 987 69 L 1024 69 L 1024 299 L 987 299 Z M 987 69 " clip-rule="nonzero"/></clipPath><clipPath id="2fabe61c57"><path d="M 0 0.105469 L 76 0.105469 L 76 161 L 0 161 Z M 0 0.105469 " clip-rule="nonzero"/></clipPath><clipPath id="3c4e9bb920"><path d="M 0 224 L 81 224 L 81 432.644531 L 0 432.644531 Z M 0 224 " clip-rule="nonzero"/></clipPath></defs><g clip-path="url(#0f7aba8c20)"><path fill="#d4a6ff" d="M 118.351562 346.082031 L 184.542969 485.585938 L 30.1875 491.496094 L -36.003906 351.992188 Z M 118.351562 346.082031 " fill-opacity="1" fill-rule="nonzero"/></g><g clip-path="url(#72ba075522)"><path fill="#d4a6ff" d="M -65.921875 443.171875 L -92.414062 291.066406 L 57.90625 326.59375 L 84.402344 478.699219 Z M -65.921875 443.171875 " fill-opacity="1" fill-rule="nonzero"/></g><g clip-path="url(#c69d7264c6)"><path fill="#d4a6ff" d="M 839.054688 354.632812 L 765.496094 498.578125 L 927.199219 500.011719 L 1000.765625 356.066406 Z M 839.054688 354.632812 " fill-opacity="1" fill-rule="nonzero"/></g><g clip-path="url(#39c2d6961e)"><path fill="#8a2eff" d="M 175.292969 490.308594 L 63.667969 452.769531 L 129.824219 355.378906 L 241.449219 392.914062 Z M 175.292969 490.308594 " fill-opacity="1" fill-rule="nonzero"/></g><g clip-path="url(#0b7ebe2dd6)"><path fill="#8a2eff" d="M 376.042969 468.144531 L 261.234375 466.503906 L 326.550781 372.113281 L 441.363281 373.757812 Z M 376.042969 468.144531 " fill-opacity="1" fill-rule="nonzero"/></g><g clip-path="url(#a8d5dbe2a0)"><path fill="#d4a6ff" d="M 259.40625 462.863281 L 130.980469 480.472656 L 231.730469 398.949219 L 360.152344 381.339844 Z M 259.40625 462.863281 " fill-opacity="1" fill-rule="nonzero"/></g><g clip-path="url(#a9d4df9c1c)"><path fill="#8a2eff" d="M 543.117188 486.847656 L 667.566406 428.492188 L 542.3125 371.886719 L 417.859375 430.242188 Z M 543.117188 486.847656 " fill-opacity="1" fill-rule="nonzero"/></g><g clip-path="url(#b829a627fd)"><path fill="#d4a6ff" d="M 455.6875 489.6875 L 556.109375 407.6875 L 427.113281 394.464844 L 326.695312 476.464844 Z M 455.6875 489.6875 " fill-opacity="1" fill-rule="nonzero"/></g><g clip-path="url(#5d8976be5c)"><path fill="#d4a6ff" d="M 692.574219 483.554688 L 561.570312 442.453125 L 678.316406 370.210938 L 809.328125 411.3125 Z M 692.574219 483.554688 " fill-opacity="1" fill-rule="nonzero"/></g><g clip-path="url(#ef6b280d8a)"><path fill="#8a2eff" d="M 779.082031 497.269531 L 871.332031 424.085938 L 776.027344 354.921875 L 683.777344 428.105469 Z M 779.082031 497.269531 " fill-opacity="1" fill-rule="nonzero"/></g><g clip-path="url(#4804279241)"><path fill="#d4a6ff" d="M 1069.398438 442.066406 L 1114.296875 286.78125 L 955.253906 316.050781 L 910.355469 471.332031 Z M 1069.398438 442.066406 " fill-opacity="1" fill-rule="nonzero"/></g><g clip-path="url(#52d3919f76)"><path fill="#8a2eff" d="M 918.539062 467.054688 L 1025.277344 448.433594 L 1032.421875 340.371094 L 925.683594 358.992188 Z M 918.539062 467.054688 " fill-opacity="1" fill-rule="nonzero"/></g><g clip-path="url(#f08d2b09bf)"><path fill="#d4a6ff" d="M 904.53125 99.621094 L 826.679688 -37.253906 L 984.097656 -31.613281 L 1061.953125 105.261719 Z M 904.53125 99.621094 " fill-opacity="1" fill-rule="nonzero"/></g><g clip-path="url(#2314cfddc1)"><path fill="#d4a6ff" d="M 127.644531 87.933594 L 205.496094 -48.941406 L 48.074219 -43.296875 L -29.777344 93.574219 Z M 127.644531 87.933594 " fill-opacity="1" fill-rule="nonzero"/></g><g clip-path="url(#1f2cf1aaad)"><path fill="#8a2eff" d="M 835.707031 -44.769531 L 927.957031 28.414062 L 832.65625 97.578125 L 740.402344 24.394531 Z M 835.707031 -44.769531 " fill-opacity="1" fill-rule="nonzero"/></g><g clip-path="url(#eac7a4f5e0)"><path fill="#8a2eff" d="M 633.734375 -26.703125 L 748.398438 -20.625 L 679.480469 71.167969 L 564.8125 65.09375 Z M 633.734375 -26.703125 " fill-opacity="1" fill-rule="nonzero"/></g><g clip-path="url(#bf9673d0f5)"><path fill="#d4a6ff" d="M 746.300781 -27.332031 L 874.722656 -44.945312 L 773.972656 36.582031 L 645.550781 54.191406 Z M 746.300781 -27.332031 " fill-opacity="1" fill-rule="nonzero"/></g><g clip-path="url(#27538a8457)"><path fill="#8a2eff" d="M 462.589844 -51.320312 L 338.136719 7.039062 L 463.394531 63.644531 L 587.847656 5.289062 Z M 462.589844 -51.320312 " fill-opacity="1" fill-rule="nonzero"/></g><g clip-path="url(#01b6c13ee5)"><path fill="#d4a6ff" d="M 550.015625 -54.15625 L 449.59375 27.84375 L 578.585938 41.066406 L 679.011719 -40.933594 Z M 550.015625 -54.15625 " fill-opacity="1" fill-rule="nonzero"/></g><g clip-path="url(#55fe272f15)"><path fill="#d4a6ff" d="M 313.128906 -48.023438 L 444.140625 -6.921875 L 327.386719 65.320312 L 196.378906 24.214844 Z M 313.128906 -48.023438 " fill-opacity="1" fill-rule="nonzero"/></g><g clip-path="url(#5875cb7aa2)"><path fill="#8a2eff" d="M 233.226562 -48.769531 L 140.976562 24.410156 L 236.28125 93.578125 L 328.53125 20.394531 Z M 233.226562 -48.769531 " fill-opacity="1" fill-rule="nonzero"/></g><g clip-path="url(#0ba1d90e17)"><path fill="#d4a6ff" d="M 69.085938 64.078125 L -32.6875 45.359375 L 19.890625 -43.726562 L 121.664062 -25.007812 Z M 69.085938 64.078125 " fill-opacity="1" fill-rule="nonzero"/></g><g clip-path="url(#c93b47bc52)"><path fill="#8a2eff" d="M 1057.285156 173.753906 L 1057.871094 45.480469 L 979.867188 49.5625 L 984.609375 185.351562 Z M 1057.285156 173.753906 " fill-opacity="1" fill-rule="nonzero"/></g><g clip-path="url(#2aacc2914c)"><path fill="#8a2eff" d="M 1072.347656 120.933594 L 1035.105469 -35.585938 L 934.902344 -26.984375 L 981.285156 138.457031 Z M 1072.347656 120.933594 " fill-opacity="1" fill-rule="nonzero"/></g><g clip-path="url(#ef4a74ded6)"><path fill="#8a2eff" d="M 1121.03125 296.570312 L 1043.730469 420.832031 L 968.179688 295.5 L 1045.484375 171.242188 Z M 1121.03125 296.570312 " fill-opacity="1" fill-rule="nonzero"/></g><g clip-path="url(#38c5286116)"><path fill="#d4a6ff" d="M 1116.320312 203.375 L 1017.714844 298.78125 L 987.917969 164.882812 L 1086.523438 69.472656 Z M 1116.320312 203.375 " fill-opacity="1" fill-rule="nonzero"/></g><g clip-path="url(#2fabe61c57)"><path fill="#8a2eff" d="M -59.441406 114.84375 L -34.265625 -1.605469 L 75.695312 44.382812 L 50.515625 160.835938 Z M -59.441406 114.84375 " fill-opacity="1" fill-rule="nonzero"/></g><g clip-path="url(#3c4e9bb920)"><path fill="#8a2eff" d="M -81.597656 333.441406 L 0.238281 441.5 L 80.554688 332.304688 L -1.28125 224.246094 Z M -81.597656 333.441406 " fill-opacity="1" fill-rule="nonzero"/></g><path fill="#d4a6ff" d="M -92.449219 228.699219 L 14.285156 321.671875 L 52.214844 185.332031 L -54.523438 92.363281 Z M -92.449219 228.699219 " fill-opacity="1" fill-rule="nonzero"/></svg>